<?xml version="1.0" encoding="utf-8"?>
<!-- Generated by IcoMoon.io -->
<!DOCTYPE svg PUBLIC "-//W3C//DTD SVG 1.1//EN" "http://www.w3.org/Graphics/SVG/1.1/DTD/svg11.dtd">
<svg version="1.1" xmlns="http://www.w3.org/2000/svg" xmlns:xlink="http://www.w3.org/1999/xlink" width="32" height="32" viewBox="0 0 32 32">
<path d="M24.615 15h-12.66l4.915-5.030c0.224-0.233 0.362-0.55 0.362-0.9s-0.138-0.667-0.362-0.9c-0.224-0.231-0.537-0.375-0.885-0.375-0.332 0-0.634 0.132-0.855 0.346l-7 7c-0.223 0.22-0.362 0.527-0.362 0.865s0.138 0.645 0.362 0.865l7 7c0.223 0.223 0.53 0.361 0.87 0.361s0.647-0.138 0.87-0.36c0.223-0.244 0.36-0.57 0.36-0.927s-0.137-0.684-0.361-0.929l-4.914-5.014h12.66c0.68 0 1.23-0.32 1.23-1s-0.55-1-1.23-1z"></path>
<path d="M16 0c-8.837 0-16 7.163-16 16s7.163 16 16 16c8.837 0 16-7.163 16-16s-7.163-16-16-16zM16 29.54c-7.478 0-13.54-6.062-13.54-13.54s6.062-13.54 13.54-13.54c7.478 0 13.54 6.062 13.54 13.54-0.009 7.474-6.066 13.531-13.539 13.54z"></path>
</svg>
