<?xml version="1.0" encoding="utf-8"?>
<!-- Generated by IcoMoon.io -->
<!DOCTYPE svg PUBLIC "-//W3C//DTD SVG 1.1//EN" "http://www.w3.org/Graphics/SVG/1.1/DTD/svg11.dtd">
<svg version="1.1" xmlns="http://www.w3.org/2000/svg" xmlns:xlink="http://www.w3.org/1999/xlink" width="32" height="32" viewBox="0 0 32 32">
<path d="M25.8 0h-19.6c-1.2 0-2.2 1-2.2 2.2v29.8h14.2v-8.4h5.2v8.4h4.6v-29.8c0-1.2-1-2.2-2.2-2.2zM13.8 28.2h-5.3v-4.6h5.2v4.6zM13.8 21.3h-5.3v-4.6h5.2v4.6zM13.8 14.5h-5.3v-4.6h5.2v4.6zM13.8 7.6h-5.3v-4.5h5.2v4.5zM23.5 21.3h-5.2v-4.6h5.2v4.6zM23.5 14.5h-5.2v-4.6h5.2v4.6zM23.5 7.6h-5.2v-4.5h5.2v4.5z"></path>
</svg>
