<?xml version="1.0" encoding="utf-8"?>
<!-- Generated by IcoMoon.io -->
<!DOCTYPE svg PUBLIC "-//W3C//DTD SVG 1.1//EN" "http://www.w3.org/Graphics/SVG/1.1/DTD/svg11.dtd">
<svg version="1.1" xmlns="http://www.w3.org/2000/svg" xmlns:xlink="http://www.w3.org/1999/xlink" width="32" height="32" viewBox="0 0 32 32">
<path d="M0.4 0v14.9c0 0.1 0 0.2 0 0.2v0 14.9c0 2 2 2 2 2h27.3c0 0 1.9 0 1.9-1.9v-14.9c0-0.1 0-0.2 0-0.2v-15h-31.2zM12.5 1.7h6.9v1.7h-6.9v-1.7zM2.2 1.7h8.6v1.7c0 0 0 1.7 1.7 1.7h6.9c1.7 0 1.7-1.7 1.7-1.7v-1.7h8.6v13.5h-27.5v-13.5zM19.5 16.8v1.7h-6.9v-1.7h6.9zM29.8 16.8v13.5h-27.6v-13.5c0.1 0 0.2 0 0.2 0h8.5v1.7c0 0 0 1.7 1.7 1.7h6.9c1.7 0 1.7-1.7 1.7-1.7v-1.7h8.5c-0.1 0 0 0 0.1 0v0z"></path>
</svg>
