<?xml version="1.0" encoding="utf-8"?>
<!-- Generated by IcoMoon.io -->
<!DOCTYPE svg PUBLIC "-//W3C//DTD SVG 1.1//EN" "http://www.w3.org/Graphics/SVG/1.1/DTD/svg11.dtd">
<svg version="1.1" xmlns="http://www.w3.org/2000/svg" xmlns:xlink="http://www.w3.org/1999/xlink" width="32" height="32" viewBox="0 0 32 32">
<path d="M0.32 0.16v14.88c0 0.16 0 0.16 0 0.32v0 15.040c0 1.92 1.92 1.92 1.92 1.92h27.52c0 0 1.92 0 1.92-1.92v-15.040c0 0 0-0.16 0-0.32v-14.88h-31.36zM12.48 1.76h6.88v1.76h-6.88v-1.76zM2.080 1.76h8.64v1.76c0 0 0 1.76 1.76 1.76h6.88c1.76 0 1.76-1.76 1.76-1.76v-1.76h8.64v13.6h-27.68v-13.6zM19.52 16.96v1.76h-7.040v-1.76h7.040zM29.92 16.96v13.6h-27.84v-13.6c0.16 0 0.16 0 0.16 0h8.48v1.76c0 0 0 1.76 1.76 1.76h6.88c1.76 0 1.76-1.76 1.76-1.76v-1.76h8.48c0.16 0 0.16 0 0.32 0v0z"></path>
</svg>
