<?xml version="1.0" encoding="utf-8"?>
<!-- Generated by IcoMoon.io -->
<!DOCTYPE svg PUBLIC "-//W3C//DTD SVG 1.1//EN" "http://www.w3.org/Graphics/SVG/1.1/DTD/svg11.dtd">
<svg version="1.1" xmlns="http://www.w3.org/2000/svg" xmlns:xlink="http://www.w3.org/1999/xlink" width="32" height="32" viewBox="0 0 32 32">
<path d="M26.665 0h-21.33c-2.946 0-5.335 2.389-5.335 5.335v21.335c0.003 2.944 2.39 5.33 5.335 5.33h21.33c2.946 0 5.335-2.389 5.335-5.335v-21.33c0-2.946-2.389-5.335-5.335-5.335zM27.6 9.4l-10.23 16.625c-0.477 0.767-1.315 1.269-2.27 1.269-0.697 0-1.332-0.268-1.807-0.706l-7.098-6.498c-0.512-0.487-0.831-1.173-0.831-1.934 0-1.472 1.193-2.665 2.665-2.665 0.681 0 1.303 0.256 1.774 0.676l4.697 4.333 8.56-13.9c0.478-0.767 1.317-1.269 2.273-1.269 1.474 0 2.669 1.195 2.669 2.669 0 0.518-0.148 1.002-0.403 1.411z"></path>
</svg>
