<?xml version="1.0" encoding="utf-8"?>
<!-- Generated by IcoMoon.io -->
<!DOCTYPE svg PUBLIC "-//W3C//DTD SVG 1.1//EN" "http://www.w3.org/Graphics/SVG/1.1/DTD/svg11.dtd">
<svg version="1.1" xmlns="http://www.w3.org/2000/svg" xmlns:xlink="http://www.w3.org/1999/xlink" width="32" height="32" viewBox="0 0 32 32">
<path d="M31 0.6c-1-0.6-2.4-0.3-3 0.7l-14.6 24.4-9.7-9.9c-0.8-0.8-2.2-0.9-3 0-0.8 0.8-0.9 2.2 0 3l11.7 11.9c0 0 0 0 0 0 0.1 0.1 0.2 0.2 0.4 0.3 0.1 0 0.1 0.1 0.2 0.1s0.1 0.1 0.2 0.1c0.2 0.1 0.5 0.1 0.7 0.1 0 0 0 0 0 0s0 0 0 0 0 0 0 0c0.2 0 0.5-0.1 0.7-0.1 0.1 0 0.1 0 0.2-0.1 0.2-0.1 0.4-0.2 0.6-0.4 0 0 0 0 0 0s0 0 0 0c0.1-0.1 0.2-0.2 0.3-0.4l16-26.8c0.6-1 0.3-2.3-0.7-2.9z"></path>
</svg>
