<?xml version="1.0" encoding="utf-8"?>
<!-- Generated by IcoMoon.io -->
<!DOCTYPE svg PUBLIC "-//W3C//DTD SVG 1.1//EN" "http://www.w3.org/Graphics/SVG/1.1/DTD/svg11.dtd">
<svg version="1.1" xmlns="http://www.w3.org/2000/svg" xmlns:xlink="http://www.w3.org/1999/xlink" width="32" height="32" viewBox="0 0 32 32">
<path d="M13.881 31.588c-0.001 0-0.001 0-0.002 0-0.991 0-1.893-0.381-2.568-1.005l-10.095-9.242c-0.782-0.697-1.271-1.708-1.271-2.832 0-2.093 1.697-3.79 3.79-3.79 1.011 0 1.93 0.396 2.61 1.042l6.69 6.164 12.146-19.733c0.679-1.089 1.87-1.804 3.228-1.804 2.094 0 3.791 1.697 3.791 3.791 0 0.736-0.209 1.422-0.572 2.004l-14.547 23.628c-0.678 1.072-1.857 1.775-3.2 1.778z"></path>
</svg>
