<?xml version="1.0" encoding="utf-8"?>
<!-- Generated by IcoMoon.io -->
<!DOCTYPE svg PUBLIC "-//W3C//DTD SVG 1.1//EN" "http://www.w3.org/Graphics/SVG/1.1/DTD/svg11.dtd">
<svg version="1.1" xmlns="http://www.w3.org/2000/svg" xmlns:xlink="http://www.w3.org/1999/xlink" width="32" height="32" viewBox="0 0 32 32">
<path d="M16.39 25.050c-0.512 0-0.975-0.209-1.31-0.545l-14.545-14.605c-0.333-0.334-0.538-0.794-0.538-1.303 0-1.019 0.826-1.846 1.846-1.846 0.511 0 0.973 0.208 1.307 0.543l13.235 13.295 12.455-12.5c0.334-0.335 0.797-0.543 1.308-0.543 1.019 0 1.846 0.826 1.846 1.846 0 0.508-0.206 0.969-0.538 1.303l-13.755 13.81c-0.335 0.336-0.798 0.545-1.31 0.545z"></path>
</svg>
