<?xml version="1.0" encoding="utf-8"?>
<!-- Generated by IcoMoon.io -->
<!DOCTYPE svg PUBLIC "-//W3C//DTD SVG 1.1//EN" "http://www.w3.org/Graphics/SVG/1.1/DTD/svg11.dtd">
<svg version="1.1" xmlns="http://www.w3.org/2000/svg" xmlns:xlink="http://www.w3.org/1999/xlink" width="32" height="32" viewBox="0 0 32 32">
<path d="M18.4 16l13.1-13.1c0.7-0.7 0.7-1.7 0-2.4s-1.7-0.7-2.4 0l-13.1 13.1-13.1-13.1c-0.7-0.7-1.7-0.7-2.4 0s-0.7 1.7 0 2.4l13.1 13.1-13.1 13.1c-0.7 0.7-0.7 1.7 0 2.4s1.7 0.7 2.4 0l13.1-13.1 13.1 13.1c0.7 0.7 1.7 0.7 2.4 0s0.7-1.7 0-2.4l-13.1-13.1z"></path>
</svg>
