<?xml version="1.0" encoding="utf-8"?>
<!-- Generated by IcoMoon.io -->
<!DOCTYPE svg PUBLIC "-//W3C//DTD SVG 1.1//EN" "http://www.w3.org/Graphics/SVG/1.1/DTD/svg11.dtd">
<svg version="1.1" xmlns="http://www.w3.org/2000/svg" xmlns:xlink="http://www.w3.org/1999/xlink" width="32" height="32" viewBox="0 0 32 32">
<path d="M16 11.68l-10.785-10.785c-0.558-0.548-1.323-0.886-2.167-0.886s-1.61 0.338-2.168 0.886c-0.546 0.558-0.883 1.323-0.883 2.167s0.337 1.609 0.884 2.168l10.799 10.769-10.785 10.785c-0.571 0.556-0.925 1.332-0.925 2.19 0 1.687 1.368 3.055 3.055 3.055 0.859 0 1.635-0.354 2.19-0.925l10.786-10.786 10.785 10.785c0.556 0.571 1.332 0.925 2.19 0.925 1.687 0 3.055-1.368 3.055-3.055 0-0.859-0.354-1.635-0.925-2.19l-10.786-10.786 10.785-10.785c0.548-0.558 0.886-1.323 0.886-2.167s-0.338-1.61-0.886-2.168c-0.558-0.546-1.323-0.883-2.167-0.883s-1.609 0.337-2.168 0.884z"></path>
</svg>
