<?xml version="1.0" encoding="utf-8"?>
<!-- Generated by IcoMoon.io -->
<!DOCTYPE svg PUBLIC "-//W3C//DTD SVG 1.1//EN" "http://www.w3.org/Graphics/SVG/1.1/DTD/svg11.dtd">
<svg version="1.1" xmlns="http://www.w3.org/2000/svg" xmlns:xlink="http://www.w3.org/1999/xlink" width="32" height="32" viewBox="0 0 32 32">
<path d="M16 32c-8.837 0-16-7.163-16-16s7.163-16 16-16c8.837 0 16 7.163 16 16s-7.163 16-16 16zM16 2.46c-7.478 0-13.54 6.062-13.54 13.54s6.062 13.54 13.54 13.54c7.478 0 13.54-6.062 13.54-13.54-0.009-7.474-6.066-13.531-13.539-13.54z"></path>
<path d="M17.74 16l4.67-4.67c0.223-0.223 0.36-0.53 0.36-0.87 0-0.68-0.551-1.23-1.23-1.23-0.34 0-0.647 0.138-0.87 0.36l-4.67 4.67-4.67-4.67c-0.223-0.223-0.53-0.36-0.87-0.36-0.679 0-1.23 0.551-1.23 1.23 0 0.34 0.138 0.647 0.36 0.87l4.67 4.67-4.67 4.67c-0.223 0.223-0.36 0.53-0.36 0.87 0 0.68 0.551 1.23 1.23 1.23 0.34 0 0.647-0.138 0.87-0.36l4.67-4.67 4.67 4.67c0.223 0.223 0.53 0.36 0.87 0.36 0.68 0 1.23-0.551 1.23-1.23 0-0.34-0.138-0.647-0.36-0.87z"></path>
</svg>
