<?xml version="1.0" encoding="utf-8"?>
<!-- Generated by IcoMoon.io -->
<!DOCTYPE svg PUBLIC "-//W3C//DTD SVG 1.1//EN" "http://www.w3.org/Graphics/SVG/1.1/DTD/svg11.dtd">
<svg version="1.1" xmlns="http://www.w3.org/2000/svg" xmlns:xlink="http://www.w3.org/1999/xlink" width="32" height="32" viewBox="0 0 32 32">
<path d="M10.7 32v-8.2h-5.4c-2.5 0-4.4-2-4.4-4.4v-14.8c0-2.5 2-4.4 4.4-4.4h21.4c2.5 0 4.4 2 4.4 4.4v14.8c0 2.5-2 4.4-4.4 4.4h-7.8l-8.2 8.2zM5.3 2.3c-1.2 0-2.1 1-2.1 2.1v14.8c0 1.2 1 2.1 2.1 2.1h7.7v5l5-5h8.7c1.2 0 2.1-1 2.1-2.1v-14.8c0-1.2-1-2.1-2.1-2.1h-21.4z"></path>
</svg>
