<?xml version="1.0" encoding="utf-8"?>
<!-- Generated by IcoMoon.io -->
<!DOCTYPE svg PUBLIC "-//W3C//DTD SVG 1.1//EN" "http://www.w3.org/Graphics/SVG/1.1/DTD/svg11.dtd">
<svg version="1.1" xmlns="http://www.w3.org/2000/svg" xmlns:xlink="http://www.w3.org/1999/xlink" width="32" height="32" viewBox="0 0 32 32">
<path d="M25.92 6.4h-18.24c-0.64 0-1.28 0.64-1.28 1.28v19.52l5.12-5.12h14.24c0.64 0 1.28-0.64 1.28-1.28v-13.12c0.16-0.64-0.48-1.28-1.12-1.28v0zM12.96 15.52c-0.64 0-1.28-0.64-1.28-1.28s0.64-1.28 1.28-1.28 1.28 0.64 1.28 1.28c0 0.64-0.64 1.28-1.28 1.28v0zM16.8 15.52c-0.64 0-1.28-0.64-1.28-1.28s0.64-1.28 1.28-1.28 1.28 0.64 1.28 1.28c0 0.64-0.64 1.28-1.28 1.28v0zM20.64 15.52c-0.64 0-1.28-0.64-1.28-1.28s0.64-1.28 1.28-1.28 1.28 0.64 1.28 1.28c0 0.64-0.48 1.28-1.28 1.28v0z"></path>
</svg>
