<?xml version="1.0" encoding="utf-8"?>
<!-- Generated by IcoMoon.io -->
<!DOCTYPE svg PUBLIC "-//W3C//DTD SVG 1.1//EN" "http://www.w3.org/Graphics/SVG/1.1/DTD/svg11.dtd">
<svg version="1.1" xmlns="http://www.w3.org/2000/svg" xmlns:xlink="http://www.w3.org/1999/xlink" width="32" height="32" viewBox="0 0 32 32">
<path d="M11.65 19.165l-9.65 9.745v-5.105c0-0.552-0.448-1-1-1s-1 0.448-1 1v7.29c0 0.5 0.405 0.905 0.905 0.905h7.29c0.001 0 0.001 0 0.002 0 0.249 0 0.475-0.101 0.638-0.265 0.165-0.197 0.265-0.453 0.265-0.733 0-0.001 0-0.002 0-0.003s0-0.003 0-0.004c0-0.519-0.395-0.945-0.901-0.995h-5.114l9.75-9.65c0.178-0.155 0.289-0.382 0.289-0.634 0-0.464-0.376-0.84-0.84-0.84-0.253 0-0.479 0.112-0.633 0.288z"></path>
<path d="M31.735 0.265c-0.164-0.164-0.39-0.265-0.64-0.265 0 0 0 0 0 0h-7.29c-0.552 0-1 0.448-1 1s0.448 1 1 1h5.105l-9.75 9.65c-0.164 0.154-0.266 0.373-0.266 0.615s0.102 0.461 0.265 0.615c0.147 0.163 0.358 0.265 0.593 0.265s0.446-0.102 0.592-0.264l9.656-9.796v5.105c0.050 0.51 0.477 0.905 0.995 0.905 0.002 0 0.003 0 0.005 0s0.004 0 0.007 0c0.262 0 0.5-0.101 0.679-0.266 0.178-0.159 0.295-0.384 0.314-0.636v-7.288c0 0 0 0 0 0 0-0.25-0.101-0.476-0.265-0.64z"></path>
</svg>
