<?xml version="1.0" encoding="utf-8"?>
<!-- Generated by IcoMoon.io -->
<!DOCTYPE svg PUBLIC "-//W3C//DTD SVG 1.1//EN" "http://www.w3.org/Graphics/SVG/1.1/DTD/svg11.dtd">
<svg version="1.1" xmlns="http://www.w3.org/2000/svg" xmlns:xlink="http://www.w3.org/1999/xlink" width="25" height="32" viewBox="0 0 25 32">
<path d="M19.5 21.5c-0.455-0.255-1.5-0.235-2.775 0 0.537 0.334 1.185 0.542 1.879 0.565 1.036 0 1.036-0.17 1.036-0.34 0.001-0.008 0.002-0.017 0.002-0.026 0-0.091-0.059-0.169-0.14-0.198z"></path>
<path d="M12.295 18.33c-0.531 1.542-1.073 2.817-1.691 4.048 1.062-0.582 2.312-0.994 3.592-1.336-0.272-0.567-0.753-1.114-1.19-1.695-0.271-0.347-0.506-0.687-0.711-1.017z"></path>
<path d="M12.165 12.935c-0.090-0.245-0.195-0.245-0.275-0.245-0.017-0.003-0.037-0.005-0.057-0.005-0.112 0-0.213 0.052-0.278 0.134-0.084 0.148-0.134 0.324-0.134 0.511 0 0.028 0.001 0.056 0.003 0.083 0.056 0.828 0.268 1.597 0.606 2.293 0.254-1.242 0.334-2.207 0.134-2.772z"></path>
<path d="M6.075 26.045c0.043 0.042 0.092 0.077 0.147 0.104 0.253 0.136 0.663-0.169 0.883-0.364 0.455-0.424 0.854-0.898 1.192-1.416-0.262 0.116-0.527 0.266-0.777 0.416-1.38 0.83-1.44 1.215-1.445 1.26z"></path>
<path d="M17.095 0h-17.095v32h25v-24.38zM18.625 23.050c-1.257-0.063-2.391-0.538-3.283-1.292-2.080 0.512-3.877 1.124-5.598 1.876-0.387 1.068-1.12 2.057-1.983 2.915-0.362 0.368-0.853 0.607-1.399 0.645-0.229 0-0.437-0.057-0.618-0.158-0.391-0.161-0.665-0.545-0.665-0.993 0-0.123 0.021-0.241 0.059-0.351 0.303-0.892 1.998-1.962 4.113-2.902 0.873-1.591 1.672-3.451 2.292-5.391-0.579-1.305-1.004-2.582-1.12-3.946-0.004-0.061-0.005-0.094-0.005-0.127 0-0.407 0.124-0.784 0.337-1.097 0.244-0.318 0.631-0.525 1.067-0.525 0.022 0 0.045 0.001 0.067 0.002 0 0 0.004 0 0.008 0 0.564 0 1.040 0.373 1.196 0.886 0.347 0.929 0.132 2.589-0.398 4.464 0.799 1.417 1.778 2.625 2.926 3.648 0.837-0.209 1.781-0.336 2.756-0.336 0.302 0 0.601 0.012 0.897 0.036 1.201 0.202 1.386 0.917 1.386 1.327 0 1.32-1.375 1.32-2.035 1.32zM16.5 8.5v-7.355l7.105 7.355h-7.105z"></path>
</svg>
