<?xml version="1.0" encoding="utf-8"?>
<!-- Generated by IcoMoon.io -->
<!DOCTYPE svg PUBLIC "-//W3C//DTD SVG 1.1//EN" "http://www.w3.org/Graphics/SVG/1.1/DTD/svg11.dtd">
<svg version="1.1" xmlns="http://www.w3.org/2000/svg" xmlns:xlink="http://www.w3.org/1999/xlink" width="32" height="32" viewBox="0 0 32 32">
<path d="M0.48 16c0 8.64 6.88 15.52 15.36 15.52s15.36-7.040 15.36-15.52c0-8.64-6.88-15.52-15.36-15.52s-15.36 6.88-15.36 15.52v0zM2.88 16c0-7.2 5.92-13.12 13.12-13.12s13.12 5.92 13.12 13.12c0 7.2-5.92 13.12-13.12 13.12-7.36 0-13.12-5.92-13.12-13.12v0z"></path>
<path d="M13.76 20.8l-4.32-4.32 1.44-1.44 2.88 2.88 7.52-7.52 1.44 1.44z"></path>
</svg>
