<?xml version="1.0" encoding="utf-8"?>
<!-- Generated by IcoMoon.io -->
<!DOCTYPE svg PUBLIC "-//W3C//DTD SVG 1.1//EN" "http://www.w3.org/Graphics/SVG/1.1/DTD/svg11.dtd">
<svg version="1.1" xmlns="http://www.w3.org/2000/svg" xmlns:xlink="http://www.w3.org/1999/xlink" width="19" height="32" viewBox="0 0 19 32">
<path d="M9.345 25.085c-0.034-0.001-0.074-0.002-0.115-0.002-0.934 0-1.779 0.383-2.385 1.001-0.597 0.652-0.962 1.524-0.962 2.481s0.365 1.828 0.964 2.483c0.629 0.66 1.518 1.071 2.503 1.071 1.911 0 3.46-1.549 3.46-3.46 0-0.028 0-0.056-0.001-0.083 0.002-0.041 0.004-0.095 0.004-0.148 0-1.847-1.498-3.345-3.345-3.345-0.043 0-0.087 0.001-0.13 0.002zM16.845 2.195q-2.515-2.195-7.070-2.195t-7.12 2.31c-1.65 1.46-2.5 3.46-2.635 6v0 1.385h6.22v-0.97c-0.001-0.033-0.002-0.073-0.002-0.112 0-0.993 0.381-1.898 1.004-2.575 0.613-0.617 1.465-1 2.406-1 0.048 0 0.095 0.001 0.143 0.003q3.343 0 3.343 3.615c-0.001 0.844-0.241 1.631-0.656 2.299-0.736 1.052-1.59 1.974-2.555 2.767-1.153 0.959-2.058 2.128-2.674 3.458-0.493 1.369-0.764 2.879-0.764 4.451 0 0.172 0.003 0.343 0.010 0.514l5.499-0.025 0.085-1.415c0.17-1.459 0.855-2.733 1.866-3.656l1.735-1.644c1.122-1.019 2.072-2.202 2.818-3.515 0.55-1.059 0.852-2.23 0.852-3.47 0-0.012 0-0.024 0-0.037q0.005-3.998-2.505-6.188z"></path>
</svg>
