<?xml version="1.0" encoding="utf-8"?>
<!-- Generated by IcoMoon.io -->
<!DOCTYPE svg PUBLIC "-//W3C//DTD SVG 1.1//EN" "http://www.w3.org/Graphics/SVG/1.1/DTD/svg11.dtd">
<svg version="1.1" xmlns="http://www.w3.org/2000/svg" xmlns:xlink="http://www.w3.org/1999/xlink" width="32" height="32" viewBox="0 0 32 32">
<path d="M16 3.2c7.069 0 12.8 5.731 12.8 12.8s-5.731 12.8-12.8 12.8c-7.069 0-12.8-5.731-12.8-12.8 0.009-7.066 5.734-12.791 12.799-12.8zM16 0c-8.837 0-16 7.163-16 16s7.163 16 16 16c8.837 0 16-7.163 16-16s-7.163-16-16-16v0z"></path>
<path d="M14.475 14.475h3.050v8.38h-3.050v-8.38z"></path>
<path d="M17.905 10.285c0 1.052-0.853 1.905-1.905 1.905s-1.905-0.853-1.905-1.905c0-1.052 0.853-1.905 1.905-1.905s1.905 0.853 1.905 1.905z"></path>
</svg>
