<?xml version="1.0" encoding="utf-8"?>
<!-- Generated by IcoMoon.io -->
<!DOCTYPE svg PUBLIC "-//W3C//DTD SVG 1.1//EN" "http://www.w3.org/Graphics/SVG/1.1/DTD/svg11.dtd">
<svg version="1.1" xmlns="http://www.w3.org/2000/svg" xmlns:xlink="http://www.w3.org/1999/xlink" width="32" height="32" viewBox="0 0 32 32">
<path d="M8.6 7.9h23.3v-5.1h-23.3z"></path>
<path d="M8.6 18.3h23.3v-5h-23.3z"></path>
<path d="M8.6 29.2h23.3v-5h-23.3z"></path>
<path d="M2.7 2.8c-1.4 0-2.6 1.1-2.6 2.5s1.1 2.5 2.6 2.5c1.4 0 2.6-1.1 2.6-2.5s-1.2-2.5-2.6-2.5z"></path>
<path d="M2.7 13.3c-1.4 0-2.6 1.1-2.6 2.5s1.1 2.5 2.6 2.5c1.4 0 2.6-1.1 2.6-2.5s-1.2-2.5-2.6-2.5z"></path>
<path d="M2.7 24.2c-1.4 0-2.6 1.1-2.6 2.5s1.1 2.5 2.6 2.5c1.4 0 2.6-1.1 2.6-2.5s-1.2-2.5-2.6-2.5z"></path>
</svg>
