<?xml version="1.0" encoding="utf-8"?>
<!-- Generated by IcoMoon.io -->
<!DOCTYPE svg PUBLIC "-//W3C//DTD SVG 1.1//EN" "http://www.w3.org/Graphics/SVG/1.1/DTD/svg11.dtd">
<svg version="1.1" xmlns="http://www.w3.org/2000/svg" xmlns:xlink="http://www.w3.org/1999/xlink" width="32" height="32" viewBox="0 0 32 32">
<path d="M25.7 13.9h-1.2v-5.4c0-4.7-3.8-8.5-8.5-8.5s-8.5 3.8-8.5 8.5v5.4h-1.6c-0.8 0-1.4 0.4-1.4 1.2v15.3c0 0.8 0.6 1.4 1.4 1.5h19.8c0.8 0 1.8-0.7 1.8-1.5v-15.3c0-0.7-1-1.2-1.8-1.2zM15.8 26.5c-2 0.1-3.7-1.5-3.8-3.6s1.5-3.7 3.6-3.8c2-0.1 3.7 1.5 3.8 3.6 0 0 0 0.1 0 0.1 0 2-1.6 3.7-3.6 3.7 0 0 0 0 0 0zM23 13.9h-14v-5.4c0-3.9 3.1-7 7-7.1 3.9 0.1 7 3.2 7 7.1v5.4z"></path>
</svg>
