<?xml version="1.0" encoding="utf-8"?>
<!-- Generated by IcoMoon.io -->
<!DOCTYPE svg PUBLIC "-//W3C//DTD SVG 1.1//EN" "http://www.w3.org/Graphics/SVG/1.1/DTD/svg11.dtd">
<svg version="1.1" xmlns="http://www.w3.org/2000/svg" xmlns:xlink="http://www.w3.org/1999/xlink" width="32" height="32" viewBox="0 0 32 32">
<path d="M19.2 11.093l-5.227 11.2c0-0.533 0-1.387 0-2.56l1.173-9.92c2.56 0 4.053 1.28 4.053 1.28v0zM12.693 9.813c0.64 0 1.173 0 1.707 0l-0.533 5.653c-0.213-1.813-0.533-3.84-1.173-5.653v0zM25.493 19.413c-0.96 0.32-1.813 0.64-2.88 0.96 0 0-2.987 1.493-5.333 2.453l6.080-7.68c0.96 1.493 1.6 2.88 2.133 4.267v0zM29.44 24.747c-0.213-0.96-0.427-1.92-0.747-2.88 0.747-0.107 1.6-0.213 2.347-0.32-0.427 1.173-0.96 2.24-1.6 3.2v0zM15.36 23.787c0 0-0.747 0.213-1.067-0.107l5.76-11.947c0.96 0.747 1.92 1.6 2.667 2.56l-7.040 9.387c-0.107 0-0.213 0-0.32 0.107v0zM0.427 12.373c0.533-2.133 1.387-4.053 2.667-5.76-0.747 1.813-1.493 3.84-2.027 5.227-0.213 0.107-0.427 0.32-0.64 0.533v0zM1.28 14.507c1.493-1.173 2.88-2.133 4.267-2.773l5.44 1.6 1.067 2.773c0.213 1.707 0.32 3.947 0.213 5.76 0 0-0.32 3.52 0.96 3.947 0 0 1.387 1.387 4.907-0.32 0 0 3.627-1.92 8.213-3.093 0.747 2.667 0.853 4.8 0.853 4.907-2.773 2.88-6.827 4.693-11.2 4.693-8.853 0-16-7.147-16-16v-0.533c0.64 0.107 1.28-0.96 1.28-0.96v0zM11.947 7.893c-0.32-0.747-0.747-1.493-1.173-2.133 0 0-1.173-1.92-2.987-3.52 2.347-1.387 5.227-2.24 8.213-2.24 8.853 0 16 7.147 16 16 0 0.853-0.107 1.6-0.213 2.453-1.28 0-2.667 0.213-4.16 0.427-0.96-2.24-1.813-3.733-1.813-3.733s-4.16-7.893-13.867-7.253v0zM11.733 12.48l-0.32-0.107-0.96-2.347c0.213 0 0.32-0.107 0.533-0.107 0.32 0.747 0.64 1.6 0.747 2.56v0zM9.813 10.24l0.747 1.92-3.733-0.96c0.96-0.427 2.027-0.747 2.987-0.96v0zM8.64 6.187c0.533 0.533 0.96 1.173 1.493 1.92-1.813 0.32-3.307 0.747-4.693 1.28l3.2-3.2zM2.56 10.773l2.24-6.187c0.32-0.32 0.64-0.64 0.96-0.853 0.747 0.533 1.493 1.067 2.24 1.813l-3.947 4.373c-0.533 0.32-1.067 0.64-1.493 0.853v0z"></path>
</svg>
