<?xml version="1.0" encoding="utf-8"?>
<!-- Generated by IcoMoon.io -->
<!DOCTYPE svg PUBLIC "-//W3C//DTD SVG 1.1//EN" "http://www.w3.org/Graphics/SVG/1.1/DTD/svg11.dtd">
<svg version="1.1" xmlns="http://www.w3.org/2000/svg" xmlns:xlink="http://www.w3.org/1999/xlink" width="32" height="32" viewBox="0 0 32 32">
<path d="M30.7 14.7h-29.4c-0.7 0-1.3 0.6-1.3 1.3s0.6 1.3 1.3 1.3h29.3c0.7 0 1.3-0.6 1.3-1.3s-0.5-1.3-1.2-1.3z"></path>
<path d="M1.3 8.4h29.3c0.7 0 1.3-0.6 1.3-1.3s-0.6-1.3-1.3-1.3h-29.3c-0.7 0-1.3 0.6-1.3 1.3s0.6 1.3 1.3 1.3z"></path>
<path d="M30.7 23.6h-29.4c-0.7 0-1.3 0.6-1.3 1.3s0.6 1.3 1.3 1.3h29.3c0.7 0 1.3-0.6 1.3-1.3 0.1-0.7-0.5-1.3-1.2-1.3z"></path>
</svg>
