<?xml version="1.0" encoding="utf-8"?>
<!-- Generated by IcoMoon.io -->
<!DOCTYPE svg PUBLIC "-//W3C//DTD SVG 1.1//EN" "http://www.w3.org/Graphics/SVG/1.1/DTD/svg11.dtd">
<svg version="1.1" xmlns="http://www.w3.org/2000/svg" xmlns:xlink="http://www.w3.org/1999/xlink" width="32" height="32" viewBox="0 0 32 32">
<path d="M10 14h12c1.105 0 2 0.895 2 2v0c0 1.105-0.895 2-2 2h-12c-1.105 0-2-0.895-2-2v0c0-1.105 0.895-2 2-2z"></path>
<path d="M28 16c0-6.627-5.373-12-12-12s-12 5.373-12 12c0 6.627 5.373 12 12 12s12-5.373 12-12zM0 16c0-8.837 7.163-16 16-16s16 7.163 16 16c0 8.837-7.163 16-16 16s-16-7.163-16-16z"></path>
</svg>
