<?xml version="1.0" encoding="utf-8"?>
<!-- Generated by IcoMoon.io -->
<!DOCTYPE svg PUBLIC "-//W3C//DTD SVG 1.1//EN" "http://www.w3.org/Graphics/SVG/1.1/DTD/svg11.dtd">
<svg version="1.1" xmlns="http://www.w3.org/2000/svg" xmlns:xlink="http://www.w3.org/1999/xlink" width="7" height="32" viewBox="0 0 7 32">
<path d="M7.11 28.445c0-1.963-1.592-3.555-3.555-3.555s-3.555 1.592-3.555 3.555c0 1.963 1.592 3.555 3.555 3.555s3.555-1.592 3.555-3.555zM7.11 16c0-1.963-1.592-3.555-3.555-3.555s-3.555 1.592-3.555 3.555c0 1.963 1.592 3.555 3.555 3.555s3.555-1.592 3.555-3.555zM7.11 3.555c0-1.963-1.592-3.555-3.555-3.555s-3.555 1.592-3.555 3.555c0 1.963 1.592 3.555 3.555 3.555s3.555-1.592 3.555-3.555z"></path>
</svg>
