<?xml version="1.0" encoding="utf-8"?>
<!-- Generated by IcoMoon.io -->
<!DOCTYPE svg PUBLIC "-//W3C//DTD SVG 1.1//EN" "http://www.w3.org/Graphics/SVG/1.1/DTD/svg11.dtd">
<svg version="1.1" xmlns="http://www.w3.org/2000/svg" xmlns:xlink="http://www.w3.org/1999/xlink" width="15" height="32" viewBox="0 0 15 32">
<path d="M14.475 15.82c-0.012-0.075-0.031-0.143-0.057-0.206 0.003-0.003 0.003-0.013 0.003-0.024s0-0.021-0.001-0.031l-7.67-14.999c-0.181-0.336-0.53-0.56-0.932-0.56-0.167 0-0.324 0.039-0.465 0.108-0.334 0.162-0.564 0.504-0.564 0.9 0 0.159 0.037 0.309 0.103 0.443l7.422 14.549-7.425 14.56c-0.063 0.128-0.101 0.278-0.101 0.437 0 0.396 0.23 0.739 0.565 0.9 0.139 0.068 0.295 0.107 0.461 0.108 0.003 0 0.007 0 0.010 0 0.401 0 0.749-0.227 0.922-0.559l7.658-15.006s0-0.040 0-0.060c0.024-0.057 0.043-0.125 0.054-0.195 0.017-0.060 0.027-0.123 0.027-0.188s-0.010-0.128-0.027-0.187l0.001 0.005z"></path>
<path d="M0.58 31.895c0.133 0.065 0.289 0.104 0.455 0.105 0.003 0 0.005 0 0.008 0 0.399 0 0.745-0.225 0.92-0.554l7.658-15.006s0-0.040 0-0.060c0.024-0.057 0.043-0.125 0.054-0.195 0.014-0.058 0.023-0.12 0.026-0.183-0.002-0.067-0.011-0.129-0.026-0.189-0.011-0.069-0.030-0.136-0.056-0.2 0.003-0.003 0.003-0.013 0.003-0.024s0-0.021-0.001-0.031l-7.655-14.999c-0.181-0.336-0.53-0.56-0.932-0.56-0.167 0-0.324 0.039-0.465 0.108-0.333 0.162-0.562 0.504-0.562 0.899 0 0.157 0.036 0.306 0.101 0.439l7.427 14.554-7.43 14.56c-0.063 0.128-0.101 0.278-0.101 0.437 0 0.396 0.23 0.739 0.565 0.9l0.006 0.003z"></path>
</svg>
