<?xml version="1.0" encoding="utf-8"?>
<!-- Generated by IcoMoon.io -->
<!DOCTYPE svg PUBLIC "-//W3C//DTD SVG 1.1//EN" "http://www.w3.org/Graphics/SVG/1.1/DTD/svg11.dtd">
<svg version="1.1" xmlns="http://www.w3.org/2000/svg" xmlns:xlink="http://www.w3.org/1999/xlink" width="32" height="32" viewBox="0 0 32 32">
<path d="M29.1 2.9c-3.8-3.9-10.1-3.9-14 0l-12.2 12.2c-1.9 1.9-2.9 4.4-2.9 7s1 5.1 2.9 7c1.9 1.9 4.4 2.9 7 2.9s5.1-1 7-2.9l12.3-12.3c1.8-1.8 2.8-4.3 2.8-6.9s-1-5.1-2.9-7zM27.6 15.4l-6.2 6.2-11-11 6.2-6.2c3-3 8-3 11 0 3.1 3 3.1 7.9 0 11z"></path>
</svg>
