<?xml version="1.0" encoding="utf-8"?>
<!-- Generated by IcoMoon.io -->
<!DOCTYPE svg PUBLIC "-//W3C//DTD SVG 1.1//EN" "http://www.w3.org/Graphics/SVG/1.1/DTD/svg11.dtd">
<svg version="1.1" xmlns="http://www.w3.org/2000/svg" xmlns:xlink="http://www.w3.org/1999/xlink" width="32" height="32" viewBox="0 0 32 32">
<path d="M24.3 23v0c-1-0.5-3.6-1.8-5.7-2.8l-0.6-2c0.9-0.6 1.6-1.5 1.7-2.6l0.4-3.3c0.1-0.3 0.1-0.6 0.1-0.9 0-2.3-1.9-4.2-4.2-4.2s-4.2 1.9-4.2 4.2c0 0.3 0 0.6 0.1 1l0.4 3.2c0.2 1.1 0.8 2.1 1.7 2.6l-0.6 2c-2 1-4.7 2.3-5.6 2.8-0.7 0.3-1.2 0.9-1.5 1.6 2.4 2.6 5.9 4.3 9.7 4.3 3.9 0 7.3-1.6 9.8-4.3-0.3-0.8-0.8-1.3-1.5-1.6z"></path>
<path d="M16 0c-8.8 0-16 7.2-16 16s7.2 16 16 16 16-7.2 16-16-7.2-16-16-16zM16 30c-7.7 0-14-6.3-14-14s6.3-14 14-14 14 6.3 14 14c0 7.7-6.3 14-14 14z"></path>
</svg>
