<?xml version="1.0" encoding="utf-8"?>
<!-- Generated by IcoMoon.io -->
<!DOCTYPE svg PUBLIC "-//W3C//DTD SVG 1.1//EN" "http://www.w3.org/Graphics/SVG/1.1/DTD/svg11.dtd">
<svg version="1.1" xmlns="http://www.w3.org/2000/svg" xmlns:xlink="http://www.w3.org/1999/xlink" width="14" height="32" viewBox="0 0 14 32">
<path d="M12.71 2c0.552 0 1-0.448 1-1s-0.448-1-1-1h-11.73c-0.552 0-1 0.448-1 1s0.448 1 1 1h4.865v26.365l-4.155-4.8c-0.177-0.189-0.427-0.307-0.706-0.307-0.246 0-0.47 0.092-0.64 0.243-0.205 0.183-0.335 0.45-0.335 0.747 0 0.255 0.095 0.487 0.252 0.663l5.864 6.774s0.030 0 0.045 0.035 0 0.035 0.040 0.050c0.051 0.039 0.108 0.074 0.169 0.103 0.035 0.023 0.069 0.045 0.105 0.065 0.115 0.051 0.241 0.080 0.375 0.083h0.001c0.134-0.002 0.261-0.032 0.376-0.082 0.037-0.019 0.073-0.041 0.107-0.065 0.063-0.029 0.121-0.064 0.174-0.105s-0.003-0.033 0.037-0.048l0.045-0.035 5.865-6.775c0.147-0.173 0.236-0.399 0.236-0.645 0-0.306-0.138-0.58-0.354-0.764-0.172-0.157-0.4-0.252-0.65-0.252-0.292 0-0.553 0.13-0.73 0.334l-4.161 4.801v-26.385h4.89z"></path>
</svg>
