<?xml version="1.0" encoding="utf-8"?>
<!-- Generated by IcoMoon.io -->
<!DOCTYPE svg PUBLIC "-//W3C//DTD SVG 1.1//EN" "http://www.w3.org/Graphics/SVG/1.1/DTD/svg11.dtd">
<svg version="1.1" xmlns="http://www.w3.org/2000/svg" xmlns:xlink="http://www.w3.org/1999/xlink" width="32" height="32" viewBox="0 0 32 32">
<path d="M23.74 20.5c0.172 0.105 0.322 0.222 0.455 0.355l7.11 7.1c0.398 0.423 0.642 0.994 0.642 1.622 0 1.309-1.061 2.37-2.37 2.37-0.628 0-1.199-0.244-1.623-0.643l-7.114-7.109c-0.127-0.133-0.24-0.282-0.334-0.444-2.085 1.454-4.67 2.33-7.46 2.33-7.199 0-13.035-5.836-13.035-13.035s5.836-13.035 13.035-13.035c7.199 0 13.035 5.836 13.035 13.035 0 2.79-0.876 5.375-2.369 7.495zM21.335 13.050c0-0.003 0-0.006 0-0.010 0-4.581-3.714-8.295-8.295-8.295s-8.295 3.714-8.295 8.295c0 4.579 3.711 8.292 8.29 8.295 0.002 0 0.004 0 0.005 0 4.581 0 8.295-3.714 8.295-8.295 0-0.002 0-0.004 0-0.005z"></path>
</svg>
