<?xml version="1.0" encoding="utf-8"?>
<!-- Generated by IcoMoon.io -->
<!DOCTYPE svg PUBLIC "-//W3C//DTD SVG 1.1//EN" "http://www.w3.org/Graphics/SVG/1.1/DTD/svg11.dtd">
<svg version="1.1" xmlns="http://www.w3.org/2000/svg" xmlns:xlink="http://www.w3.org/1999/xlink" width="32" height="32" viewBox="0 0 32 32">
<path d="M30.72 27.84l-6.24-6.4c-0.48-0.48-1.28-0.48-1.92 0l-3.84-3.84 0.16-0.16c1.6-1.92 2.56-4.32 2.56-7.040 0.32-5.6-4.32-10.4-10.24-10.4s-10.4 4.8-10.4 10.56 4.64 10.56 10.4 10.56c2.080 0 4-0.64 5.6-1.6 0.16 0 0.16 0 0.16 0l3.84 3.84c-0.48 0.48-0.48 1.44 0 1.92l6.24 6.4c0.48 0.48 1.28 0.48 1.92 0l1.92-1.92c0.48-0.48 0.48-1.44-0.16-1.92zM11.2 17.6c-3.84 0-6.88-3.2-6.88-7.040s3.040-7.040 6.88-7.040 7.040 3.2 7.040 7.040c0 3.84-3.2 7.040-7.040 7.040z"></path>
</svg>
