<?xml version="1.0" encoding="utf-8"?>
<!-- Generated by IcoMoon.io -->
<!DOCTYPE svg PUBLIC "-//W3C//DTD SVG 1.1//EN" "http://www.w3.org/Graphics/SVG/1.1/DTD/svg11.dtd">
<svg version="1.1" xmlns="http://www.w3.org/2000/svg" xmlns:xlink="http://www.w3.org/1999/xlink" width="32" height="32" viewBox="0 0 32 32">
<path d="M30.8 30.7l-7.8-8.5c2.4-2.4 3.8-5.6 3.8-9.2 0-7.2-5.8-13-13-13s-13 5.8-13 13 5.8 13 13 13c3 0 5.8-1 8-2.8l7.8 8.5c0.2 0.2 0.4 0.2 0.6 0.2s0.4-0.1 0.5-0.2c0.4-0.2 0.4-0.7 0.1-1zM2.5 13c0-6.3 5.1-11.5 11.5-11.5 6.3 0 11.5 5.1 11.5 11.5 0 6.3-5.1 11.5-11.5 11.5-6.4-0.1-11.5-5.2-11.5-11.5z"></path>
</svg>
