<?xml version="1.0" encoding="utf-8"?>
<!-- Generated by IcoMoon.io -->
<!DOCTYPE svg PUBLIC "-//W3C//DTD SVG 1.1//EN" "http://www.w3.org/Graphics/SVG/1.1/DTD/svg11.dtd">
<svg version="1.1" xmlns="http://www.w3.org/2000/svg" xmlns:xlink="http://www.w3.org/1999/xlink" width="32" height="32" viewBox="0 0 32 32">
<path d="M19.2 27.68c0 0-0.64 4.16-2.88 4.16h-0.64c-1.92 0-2.88-4.48-2.88-4.48z"></path>
<path d="M19.2 4.64c0 0-0.64-4.48-2.88-4.48h-0.64c-1.92 0-2.88 4.32-2.88 4.32z"></path>
<path d="M27.68 12.8c0 0 4.16 0.64 4.16 2.88v0.8c0 1.92-4.48 2.88-4.48 2.88z"></path>
<path d="M4.64 12.8c0 0-4.48 0.64-4.48 2.88v0.8c0 1.92 4.48 2.88 4.48 2.88z"></path>
<path d="M10.080 26.56c0 0-3.36 2.56-4.96 0.96l-0.64-0.64c-1.28-1.28 1.28-5.12 1.28-5.12z"></path>
<path d="M26.4 10.24c0 0 2.88-3.52 1.28-5.12l-0.64-0.8c-1.28-1.28-5.12 1.28-5.12 1.28z"></path>
<path d="M26.56 21.92c0 0 2.72 3.36 1.12 4.96l-0.8 0.8c-1.28 1.28-4.96-1.28-4.96-1.28z"></path>
<path d="M10.24 5.6c0 0-3.52-2.72-5.12-1.12l-0.8 0.64c-1.28 1.28 1.28 5.12 1.28 5.12z"></path>
<path d="M19.2 16c0 1.767-1.433 3.2-3.2 3.2s-3.2-1.433-3.2-3.2c0-1.767 1.433-3.2 3.2-3.2s3.2 1.433 3.2 3.2z"></path>
<path d="M16 3.84c-6.72 0-12 5.44-12 12s5.44 12 12 12 12-5.44 12-12-5.28-12-12-12zM16 21.76c-3.2 0-5.6-2.56-5.6-5.76s2.4-5.76 5.6-5.76 5.76 2.56 5.76 5.76-2.72 5.76-5.76 5.76z"></path>
</svg>
