<?xml version="1.0" encoding="utf-8"?>
<!-- Generated by IcoMoon.io -->
<!DOCTYPE svg PUBLIC "-//W3C//DTD SVG 1.1//EN" "http://www.w3.org/Graphics/SVG/1.1/DTD/svg11.dtd">
<svg version="1.1" xmlns="http://www.w3.org/2000/svg" xmlns:xlink="http://www.w3.org/1999/xlink" width="32" height="32" viewBox="0 0 32 32">
<path d="M30.476 0.295l-9.803 9.9v-5.186c0-0.561-0.455-1.016-1.016-1.016s-1.016 0.455-1.016 1.016v7.406c0 0.508 0.412 0.919 0.919 0.919h7.406c0.001 0 0.001 0 0.002 0 0.253 0 0.482-0.103 0.648-0.269 0.168-0.2 0.269-0.46 0.269-0.744 0-0.001 0-0.002 0-0.003s0-0.003 0-0.004c0-0.527-0.401-0.96-0.915-1.011h-5.195l9.905-9.803c0.18-0.157 0.294-0.388 0.294-0.644 0-0.471-0.382-0.853-0.853-0.853-0.257 0-0.487 0.113-0.643 0.293z"></path>
<path d="M13.293 18.682c-0.166-0.166-0.396-0.269-0.65-0.269 0 0 0 0 0 0h-7.406c-0.561 0-1.016 0.455-1.016 1.016s0.455 1.016 1.016 1.016h5.186l-9.905 9.803c-0.166 0.157-0.27 0.379-0.27 0.625s0.103 0.468 0.269 0.624c0.149 0.166 0.364 0.27 0.602 0.27s0.453-0.104 0.601-0.268l9.809-9.951v5.186c0.051 0.518 0.484 0.919 1.011 0.919 0.002 0 0.003 0 0.005 0s0.004 0 0.007 0c0.266 0 0.508-0.102 0.69-0.27 0.181-0.162 0.3-0.39 0.319-0.646v-7.404c0 0 0 0 0 0 0-0.254-0.103-0.484-0.269-0.65z"></path>
</svg>
