<?xml version="1.0" encoding="utf-8"?>
<!-- Generated by IcoMoon.io -->
<!DOCTYPE svg PUBLIC "-//W3C//DTD SVG 1.1//EN" "http://www.w3.org/Graphics/SVG/1.1/DTD/svg11.dtd">
<svg version="1.1" xmlns="http://www.w3.org/2000/svg" xmlns:xlink="http://www.w3.org/1999/xlink" width="32" height="32" viewBox="0 0 32 32">
<path d="M31.935 12.345c-0.158-0.458-0.555-0.795-1.038-0.864l-9.507-1.356-4.245-8.47c-0.241-0.395-0.67-0.655-1.16-0.655s-0.919 0.26-1.157 0.649l-4.248 8.476-9.5 1.355c-0.49 0.070-0.887 0.407-1.042 0.856-0.043 0.127-0.066 0.263-0.066 0.404 0 0.358 0.149 0.68 0.388 0.91l6.87 6.595-1.62 9.31c-0.013 0.067-0.020 0.144-0.020 0.223 0 0.418 0.203 0.789 0.516 1.020 0.214 0.155 0.478 0.246 0.763 0.246 0.221 0 0.43-0.055 0.612-0.152l8.518-4.372 8.5 4.395c0.176 0.093 0.384 0.148 0.605 0.148 0.285 0 0.549-0.091 0.764-0.246 0.313-0.229 0.516-0.599 0.516-1.017 0-0.080-0.007-0.157-0.021-0.233l-1.619-9.302 6.87-6.595c0.24-0.229 0.389-0.551 0.389-0.909 0-0.142-0.024-0.278-0.067-0.405l0.003 0.009z"></path>
</svg>
