<?xml version="1.0" encoding="utf-8"?>
<!-- Generated by IcoMoon.io -->
<!DOCTYPE svg PUBLIC "-//W3C//DTD SVG 1.1//EN" "http://www.w3.org/Graphics/SVG/1.1/DTD/svg11.dtd">
<svg version="1.1" xmlns="http://www.w3.org/2000/svg" xmlns:xlink="http://www.w3.org/1999/xlink" width="32" height="32" viewBox="0 0 32 32">
<path d="M11.5 1.8c-8.3 2.2-13.2 10.6-11 18.8l1.5-0.4c-2-7.4 2.4-15 9.9-17l0.2 0.7c0.2 0.8 0.8 0.9 1.4 0.4l1.9-2c0.6-0.6 0.4-1.3-0.4-1.5l-2.7-0.8c-0.8-0.2-1.3 0.2-1 1l0.2 0.8zM30.6 20.6c2.2-8.2-2.7-16.6-11-18.8l-0.4 1.4c7.5 2 11.9 9.6 10 17l-0.8-0.2c-0.8-0.2-1.2 0.3-1 1l0.8 2.7c0.2 0.8 0.9 1 1.5 0.4l2-1.9c0.6-0.6 0.4-1.2-0.4-1.4l-0.7-0.2zM4.6 27.5c6.1 6 15.9 6 22 0l-1-1c-5.5 5.4-14.4 5.4-19.9 0l0.5-0.5c0.6-0.6 0.4-1.2-0.4-1.4l-2.8-0.7c-0.8-0.2-1.3 0.3-1.1 1.1l0.7 2.7c0.2 0.8 0.8 1 1.4 0.4l0.6-0.6z"></path>
</svg>
