<?xml version="1.0" encoding="utf-8"?>
<!-- Generated by IcoMoon.io -->
<!DOCTYPE svg PUBLIC "-//W3C//DTD SVG 1.1//EN" "http://www.w3.org/Graphics/SVG/1.1/DTD/svg11.dtd">
<svg version="1.1" xmlns="http://www.w3.org/2000/svg" xmlns:xlink="http://www.w3.org/1999/xlink" width="35" height="32" viewBox="0 0 35 32">
<path d="M13.853 14.641h20.672v3.183h-20.672v-3.183z"></path>
<path d="M13.853 1.92h20.672v3.183h-20.672v-3.183z"></path>
<path d="M13.853 27.372h20.672v3.183h-20.672v-3.183z"></path>
<path d="M4.305 8.146l-4.305-4.305 2.244-2.255 2.061 2.061 3.647-3.647 2.255 2.244-5.902 5.902z"></path>
<path d="M4.305 19.28l-4.305-4.305 2.244-2.255 2.061 2.061 3.647-3.647 2.255 2.244-5.902 5.902z"></path>
<path d="M4.305 32l-4.305-4.305 2.244-2.244 2.061 2.050 3.647-3.647 2.255 2.255-5.902 5.891z"></path>
</svg>
