<?xml version="1.0" encoding="utf-8"?>
<!-- Generated by IcoMoon.io -->
<!DOCTYPE svg PUBLIC "-//W3C//DTD SVG 1.1//EN" "http://www.w3.org/Graphics/SVG/1.1/DTD/svg11.dtd">
<svg version="1.1" xmlns="http://www.w3.org/2000/svg" xmlns:xlink="http://www.w3.org/1999/xlink" width="32" height="32" viewBox="0 0 32 32">
<path d="M18.24 16c0 1.237-1.003 2.24-2.24 2.24s-2.24-1.003-2.24-2.24c0-1.237 1.003-2.24 2.24-2.24s2.24 1.003 2.24 2.24z"></path>
<path d="M26.72 15.2c-1.6-1.76-5.92-5.44-10.72-5.44s-9.12 3.68-10.72 5.44c-0.48 0.48-0.48 1.28 0 1.6 1.6 1.76 5.92 5.44 10.72 5.44s9.12-3.68 10.72-5.44c0.48-0.48 0.48-1.12 0-1.6v0zM16 20.48c-2.4 0-4.32-2.080-4.32-4.48s1.92-4.48 4.32-4.48 4.32 2.080 4.32 4.48-1.92 4.48-4.32 4.48v0z"></path>
</svg>
