<?xml version="1.0" encoding="utf-8"?>
<!-- Generated by IcoMoon.io -->
<!DOCTYPE svg PUBLIC "-//W3C//DTD SVG 1.1//EN" "http://www.w3.org/Graphics/SVG/1.1/DTD/svg11.dtd">
<svg version="1.1" xmlns="http://www.w3.org/2000/svg" xmlns:xlink="http://www.w3.org/1999/xlink" width="32" height="32" viewBox="0 0 32 32">
<path d="M16 5.8c-6.5 0-12.3 3.8-15.9 9.7-0.2 0.3-0.2 0.7 0 1 3.6 5.9 9.4 9.7 15.9 9.7s12.3-3.8 15.9-9.7c0.2-0.3 0.2-0.7 0-1-3.6-5.9-9.4-9.7-15.9-9.7v0zM16 7.5c5.8 0 11 3.3 14.3 8.5-3.3 5.2-8.5 8.5-14.3 8.5s-11-3.3-14.3-8.5c3.3-5.2 8.5-8.5 14.3-8.5v0zM16 10c-2.8 0-5.1 2.7-5.1 6s2.3 6 5.1 6 5.1-2.7 5.1-6c0-3.3-2.3-6-5.1-6v0zM16 11.7c2 0 3.6 1.9 3.6 4.3s-1.6 4.3-3.6 4.3-3.6-1.9-3.6-4.3c0-2.4 1.6-4.3 3.6-4.3v0z"></path>
</svg>
