<?xml version="1.0" encoding="utf-8"?>
<!-- Generated by IcoMoon.io -->
<!DOCTYPE svg PUBLIC "-//W3C//DTD SVG 1.1//EN" "http://www.w3.org/Graphics/SVG/1.1/DTD/svg11.dtd">
<svg version="1.1" xmlns="http://www.w3.org/2000/svg" xmlns:xlink="http://www.w3.org/1999/xlink" width="32" height="32" viewBox="0 0 32 32">
<path d="M21.6 14.5h-4.5v-9.1h4.5v3.4h7.6v-8.8h-7.8v3.4h-6.7v11.4h-4.5v-3.4h-7.9v9.2h8.1v-3.4h4.5v11.4h6.7v3.4h7.8v-9.2h-7.8v3.4h-4.5v-9.2h4.5v3.4h7.8v-9.2h-7.8v3.3zM23.8 2h3.4v4.5h-3.4v-4.5zM7.9 18.1h-3.3v-4.5h3.4v4.5zM23.8 25h3.4v4.5h-3.4v-4.5zM23.8 13.4h3.4v4.5h-3.4v-4.5z"></path>
</svg>
