<?xml version="1.0" encoding="utf-8"?>
<!-- Generated by IcoMoon.io -->
<!DOCTYPE svg PUBLIC "-//W3C//DTD SVG 1.1//EN" "http://www.w3.org/Graphics/SVG/1.1/DTD/svg11.dtd">
<svg version="1.1" xmlns="http://www.w3.org/2000/svg" xmlns:xlink="http://www.w3.org/1999/xlink" width="32" height="32" viewBox="0 0 32 32">
<path d="M7.465 11.735h10.67c0.588 0 1.065 0.477 1.065 1.065v0.005c0 0.588-0.477 1.065-1.065 1.065h-10.67c-0.588 0-1.065-0.477-1.065-1.065v-0.005c0-0.588 0.477-1.065 1.065-1.065z"></path>
<path d="M12.8 25.6c3.156-0.006 6.043-1.157 8.268-3.060l9.113 9.145c0.197 0.235 0.49 0.383 0.818 0.383 0.588 0 1.065-0.477 1.065-1.065 0-0.328-0.148-0.621-0.381-0.817l-9.132-9.146c1.896-2.199 3.050-5.084 3.050-8.238 0-0.001 0-0.002 0-0.002 0-7.069-5.731-12.8-12.8-12.8s-12.8 5.731-12.8 12.8c0 7.069 5.731 12.8 12.8 12.8v0zM12.8 2.135c0.001 0 0.002 0 0.003 0 5.876 0 10.64 4.764 10.64 10.64 0 2.951-1.202 5.622-3.142 7.549l-0.151 0.156c-0.090 0.090-0.18 0.185-0.275 0.27-1.876 1.682-4.369 2.71-7.102 2.71-5.887 0-10.66-4.773-10.66-10.66s4.773-10.66 10.66-10.66c0.001 0 0.001 0 0.002 0v0z"></path>
</svg>
